<svg xmlns="http://www.w3.org/2000/svg" xmlns:xlink="http://www.w3.org/1999/xlink" width="36" height="36" viewBox="0 0 36 36"><defs><clipPath id="a"><rect width="30" height="22.806" fill="#fff"/></clipPath></defs><g transform="translate(-85 -966)"><path d="M0,0H36V36H0Z" transform="translate(85 966)" fill="none" opacity="0"/><g transform="translate(88 972)"><g clip-path="url(#a)"><path d="M0,16.377a25.344,25.344,0,0,1,4.193-13.9,1.79,1.79,0,0,1,1.2-.939c.954-.323,1.893-.7,2.857-.986C9.016.327,9.806.192,10.582.01a.225.225,0,0,1,.291.144c.2.4.416.793.592,1.2a.3.3,0,0,0,.387.209,22.4,22.4,0,0,1,6.323,0,.31.31,0,0,0,.38-.226c.178-.41.392-.8.586-1.207a.215.215,0,0,1,.273-.13,25.358,25.358,0,0,1,5.323,1.581,1.92,1.92,0,0,1,1.1.922,25.19,25.19,0,0,1,4.113,15.264c-.02.349-.036.7-.078,1.046a.474.474,0,0,1-.163.3,24.65,24.65,0,0,1-7.243,3.665.238.238,0,0,1-.324-.112q-.679-1.114-1.369-2.222c-.11-.176-.076-.254.117-.341.689-.311,1.371-.639,2.049-.973.238-.117.234-.175.032-.341-.266-.233-.36-.317-.72-.16A17.742,17.742,0,0,1,7.657,18.6c-.231-.115-1.067.234-.633.512q1.006.5,2.022.974c.286.134.307.138.149.4-.437.723-.889,1.439-1.328,2.161a.264.264,0,0,1-.362.128,24.812,24.812,0,0,1-7.2-3.651.48.48,0,0,1-.176-.313C.078,18,.042,17.189,0,16.377M22.691,12.53c.076-2.566-2.96-4.141-4.7-2a3.282,3.282,0,0,0,.149,4.2c1.825,1.941,4.64.246,4.555-2.2m-9.965,0c.079-2.648-3.07-4.148-4.762-1.925a3.3,3.3,0,0,0,.158,4.067c1.8,2.017,4.692.336,4.6-2.143" transform="translate(0 0.001)" fill="#fff"/></g></g></g></svg>