<svg xmlns="http://www.w3.org/2000/svg" width="24" height="24" viewBox="0 0 24 24"><rect width="24" height="24" fill="none"/><g transform="translate(2 3)"><path d="M17.761,9A1.484,1.484,0,0,1,19.25,7.525a.754.754,0,0,0,.53-.217A.741.741,0,0,0,20,6.781V4.1A4.129,4.129,0,0,0,15.856,0H4.144A4.129,4.129,0,0,0,0,4.1V6.868a.741.741,0,0,0,.22.526.754.754,0,0,0,.53.217A1.41,1.41,0,0,1,2.239,9,1.484,1.484,0,0,1,.75,10.476.747.747,0,0,0,0,11.22v2.675A4.129,4.129,0,0,0,4.143,18H15.857A4.129,4.129,0,0,0,20,13.895V11.22a.747.747,0,0,0-.75-.743A1.484,1.484,0,0,1,17.761,9Z" fill="#fff" opacity="0.4"/><path d="M5.907,4.536l.279,1.623a.741.741,0,0,1-1.076.779L3.655,6.173,2.2,6.939a.739.739,0,0,1-1.072-.78L1.4,4.536.224,3.388A.739.739,0,0,1,.637,2.126l1.626-.237L2.992.412A.738.738,0,0,1,3.655,0h0a.736.736,0,0,1,.662.413l.729,1.476,1.629.238a.739.739,0,0,1,.409,1.261Z" transform="translate(6.344 5.201)" fill="#fff"/></g></svg>