<svg xmlns="http://www.w3.org/2000/svg" width="24" height="24" viewBox="0 0 24 24"><rect width="24" height="24" fill="none"/><g transform="translate(2 2)"><path d="M5.665,0C2.276,0,0,2.378,0,5.917v8.167C0,17.622,2.276,20,5.665,20h8.668C17.722,20,20,17.622,20,14.084V5.917C20,2.378,17.723,0,14.334,0Z" fill="#fff" opacity="0.4"/><path d="M10.78,5.2a.743.743,0,0,1-.751-.751V3.35H8.7v1.1A.751.751,0,0,1,7.95,5.2.742.742,0,0,1,7.2,4.45V3.35H5.08A2.567,2.567,0,0,1,2.61,5.2a2.6,2.6,0,1,1,0-5.2A2.566,2.566,0,0,1,5.08,1.85h5.7a.751.751,0,0,1,.75.75V4.45A.751.751,0,0,1,10.78,5.2ZM2.61,1.5a1.1,1.1,0,1,0,1.1,1.1A1.106,1.106,0,0,0,2.61,1.5Z" transform="translate(4.234 7.399)" fill="#fff"/></g></svg>