<svg xmlns="http://www.w3.org/2000/svg" width="24" height="24" viewBox="0 0 24 24"><rect width="24" height="24" fill="none"/><g transform="translate(3.5 2)"><path d="M13.515,7.011a3.336,3.336,0,0,1-3.309-3.336V.459A.456.456,0,0,0,9.753,0H4.464A4.489,4.489,0,0,0,0,4.509V15.284A4.692,4.692,0,0,0,4.67,20h7.877A4.476,4.476,0,0,0,17,15.5V7.471a.453.453,0,0,0-.453-.458c-.423,0-.93.008-1.239.008C14.857,7.021,14.259,7.011,13.515,7.011Z" fill="#fff" opacity="0.4"/><path d="M0,.481V3.118A2.026,2.026,0,0,0,2.017,5.134c.7.008,1.665.01,2.487.008a.477.477,0,0,0,.343-.808C3.792,3.237,1.9,1.271.821.147A.477.477,0,0,0,0,.481Z" transform="translate(11.763 0.42)" fill="#fff" opacity="0.4"/><path d="M.744,6.484a.745.745,0,0,1,0-1.49H6.188a.745.745,0,0,1,0,1.49Zm0-5A.744.744,0,1,1,.744,0H4.129a.744.744,0,1,1,0,1.489Z" transform="translate(4.73 7.899)" fill="#fff"/></g></svg>