<svg xmlns="http://www.w3.org/2000/svg" xmlns:xlink="http://www.w3.org/1999/xlink" width="36" height="36" viewBox="0 0 36 36"><defs><clipPath id="a"><rect width="32" height="26.136" fill="#fff"/></clipPath></defs><g transform="translate(-377 -835)"><rect width="36" height="36" transform="translate(377 835)" fill="none"/><g transform="translate(379 839.932)"><g clip-path="url(#a)"><path d="M28.435,4.074A13.883,13.883,0,0,0,32,3.171a12.307,12.307,0,0,1-2.976,3.143.547.547,0,0,0-.244.524,17.936,17.936,0,0,1-.8,5.919C24.716,24.648,10.237,29.893,0,23.179a13.247,13.247,0,0,0,9.593-2.711A6.76,6.76,0,0,1,3.544,15.9a7.8,7.8,0,0,0,2.824-.167A6.674,6.674,0,0,1,1.223,9.212a6.319,6.319,0,0,0,2.868.758A6.672,6.672,0,0,1,2.165,1.226a18.8,18.8,0,0,0,13.586,6.88C14.3,1.732,22.173-2.717,26.812,1.913c.442.437,2.659-.6,3.246-.832A11.1,11.1,0,0,1,31.116.569a6.542,6.542,0,0,1-2.681,3.505" transform="translate(0 -0.001)" fill="#fff"/></g></g></g></svg>